<svg version="1" xmlns="http://www.w3.org/2000/svg" width="613.333" height="613.333" viewBox="0 0 460.000000 460.000000"><path d="M223.8 30.5c-.2.2-2.4.5-4.9.8-5.4.7-16.5 3.4-18.7 4.8-1 .5-2.8 1.4-4.2 1.9-1.4.6-3.8 1.9-5.5 3-1.6 1.1-3.7 2.3-4.5 2.7-.8.4-2 1.4-2.7 2.2-.7.9-1.3 1.3-1.3.9 0-1.3-11.8 11.2-15.6 16.7-3.7 5.3-12.2 23.1-12.7 26.5-.2.8-.6 2-.9 2.6-.4.6-1 2.4-1.3 4-.3 1.6-.8 4-1.1 5.4-.3 1.4-1.1 5.2-1.9 8.5-4.1 18.4-3.9 51.2.6 78 8.3 50 32.3 103.7 60.2 134.8 3.8 4.2 2.1.8-3.7-7.6-10.3-14.7-19.1-30.7-26.5-47.9-7.8-18.2-16.2-45.5-18.7-60.8-.3-1.9-.7-3.7-.9-4-.2-.3-.7-3.5-1-7-.4-3.6-.8-6.7-1-7-1.4-2.2-2-34.1-1-49 .5-7.3.8-9.6 2.1-17 .4-1.9.8-4.2.9-5 .2-.8 1-4.4 2-8 .9-3.6 1.7-7.1 1.7-7.8.1-.6.4-1.2.8-1.2s.7-.7.7-1.5c0-1.9 4.5-11.8 5.8-12.7.5-.4.7-.8.2-.8-1.2 0 3.2-8 4.5-8 .6 0 .8-.3.5-.6C174.1 75.8 194.1 53 197 53c.6 0 2-.9 3.2-2 1.2-1 2.5-1.7 3-1.4.4.3.8 0 .8-.6s.4-.9.9-.5c.5.3 1.2.1 1.6-.5.7-1.2 9.1-3.7 15.4-4.7 12.2-1.8 28.1 0 37.6 4.2 2.2 1 4.3 1.7 4.8 1.7.4-.1.7.2.7.8 0 .5.5 1 1.1 1 3.2 0 16.6 12.8 22.1 21.2 10.1 15.2 17.3 37.7 19.5 60.8 1.8 18.6-.1 57.3-3.4 70.7-.3 1.3-.1 2.3.4 2.3s1-.6 1.1-1.3c0-.6 1-5.5 2.1-10.8 1.1-5.3 2.3-11.8 2.6-14.5.4-2.7.9-6 1.2-7.4 1.2-6 1.1-44.8-.2-53.5-5.8-39.1-21.5-66.4-45.5-78.9-10.5-5.4-17.9-7.5-30-8.2-4.1-.3-8.5-.6-9.7-.8-1.3-.2-2.4-.2-2.5-.1z"/><path d="M303.3 208.5c0 .8.4 1.2.9.9.4-.3.8-.9.8-1.5 0-.5-.4-.9-.8-.9-.5 0-.9.7-.9 1.5zM208 228c-12.4 1.9-18.9 3.4-18.4 4.2.3.4.9.6 1.4.3 3.1-1.9 38-2.7 55-1.3 17 1.5 39.3 5.6 55 10.2 3 .9 6.5 1.9 7.8 2.1 2.7.7 19.8 6.8 25 9 7.9 3.5 19.7 9 20.2 9.5.3.3 1.9 1.2 3.5 2 5 2.5 13 7.4 13.3 8.2.2.4.9.8 1.6.8.7 0 2.2.9 3.4 2 1.2 1.2 2.2 1.8 2.2 1.5 0-.5 3.7 2.5 6.6 5.3.8.7 1.4 1 1.4.6s1.1.5 2.4 1.9c1.3 1.4 2.6 2.4 2.9 2.1.3-.3 1.4.6 2.5 2 1.1 1.5 2.2 2.6 2.6 2.6.3 0 4.4 3.8 9.1 8.5 4.7 4.7 8.3 8.5 8 8.5-.3 0 .8 1.2 2.3 2.7 3.5 3.5 11.2 13.9 11.2 15.2 0 .5.7 1.2 1.6 1.5.8.3 1.3 1 1 1.5-.4.5-.3 1.1.2 1.3 1 .4 7.2 10.5 7.2 11.7 0 .5.3 1.1.8 1.3 1.7.7 8.3 15.4 10.2 22.6 3.4 13.2 1.2 25.5-6 33-1.6 1.8-3.5 3.2-4.2 3.2-.6 0-.8.3-.5.7 1.5 1.4-16.1 9.3-23.8 10.7-1.6.3-4.6.8-6.5 1.2-5.7 1-25.9 1.2-34.4.2-24.8-2.7-56.6-12.7-82.2-25.9-11.1-5.8-29.9-17.5-36.1-22.6-2.4-1.9-4.3-3-4.3-2.5 0 .9 7.1 7.2 11.4 10.1 1.2.8 2.3 1.7 2.6 2.1 1.7 2 20.5 13.9 30.1 19.1 22.4 12.1 48.4 21.9 66.9 25.2 16.7 3.1 23.8 3.9 34.5 3.9 3.8 0 9.9-.3 13.5-.7 3.6-.4 7.4-.8 8.5-.9 1.1-.1 2.5-.4 3-.8.6-.3 2.6-.9 4.5-1.4 4.6-1 4.1-.9 7.5-2.4 1.7-.7 3.2-1.4 3.5-1.4 1.4-.3 10.9-6.8 13.7-9.4 1.7-1.6 4.8-5.5 6.7-8.5l3.6-5.6V373c0-12.7-.4-20-1-20-.5 0-1-.5-1-1.1 0-3.5-12.4-26.4-17.7-32.6-4.3-5-5.3-6.3-5.3-6.7 0-.2-1.5-2-3.2-3.9-15.5-16.4-20-20.7-27.8-26.7-2.5-1.9-4.6-3.8-4.8-4.2-.2-.5-1-.8-1.8-.8s-1.7-.7-2-1.5c-.4-.8-1-1.5-1.5-1.5-.8 0-9.8-5.8-10.9-6.9-.3-.4-1.9-1.3-3.5-2.2-5.6-2.9-8-4.4-8.7-5.4-.4-.6-.8-.6-.8-.2 0 .5-1.5 0-3.4-1.1-6-3.5-21.3-10.1-33.3-14.3-19.7-6.8-40.3-11.5-66.8-15.4-6.9-1-52.7-1.4-58.5-.5z"/><path d="M125.3 247.4c-22.7 8-48.2 21.8-66.3 35.9-14.6 11.4-35.2 34.3-45.5 50.7-3.8 6-10.8 20-11.2 22.5-.2 1.1-.8 2.4-1.3 2.9-.6.6-1 8.1-1 17.3 0 15.7.1 16.5 2.5 20.3 1.4 2.2 2.5 4.3 2.5 4.7 0 1.9 13 13.1 18 15.5 10.2 4.9 13.5 6.1 20 7.4 1.4.3 3.2.7 4 .9 7.9 2.3 30.1 2.3 41.6.1 1.2-.2 3.7-.7 5.5-1 3.5-.6 6.6-1.2 9.7-2.1.9-.2 3.7-.9 6.2-1.5 6.6-1.6 24.3-7.8 33.2-11.7 4.2-1.8 8.1-3.3 8.6-3.3.6 0 1.2-.3 1.4-.8.2-.4 5-3.1 10.8-6.1 8.6-4.4 26.2-15 30.5-18.4.6-.4 2-1.5 3.2-2.5 1.2-.9 3.4-2.6 4.9-3.7 9.1-6.6 29.4-25.6 37.9-35.5 10.4-12.2 24.2-31.9 31-44.5 2.1-3.9 4.1-7.5 4.5-8 1.7-2.4 10.1-21.8 9.8-22.6-.2-.5-2.7 3.7-5.7 9.3-7 13.4-19.1 32.4-27.7 43.5-10 12.8-34.2 36.9-43.4 43.3-1.9 1.3-3.7 2.7-4 3-.8.9-14.9 11-15.4 11-.3 0-2.5 1.4-5 3-6.7 4.6-28.7 15.5-40.1 19.9-10.7 4.2-28.8 9.8-34.5 10.7-1.9.3-3.7.7-4 .9-.5.3-2.6.7-15 2.4-3.6.5-14.2.9-23.5 1-17.6 0-27.6-1.3-35.2-4.6-2.1-.9-4-1.7-4.3-1.8-3.8-.7-15-11.4-15-14.2 0-.7-.4-1.3-.9-1.3-1.6 0-3-8.5-2.7-17 .5-13.2 6.1-27.3 18.3-45.8 15.7-23.8 39.9-46.5 65.8-61.8 10-5.8 28-14.5 38.3-18.5 3.4-1.3 6.2-2.7 6.2-3.1 0-.5-.1-.8-.2-.7-.2 0-5.8 1.9-12.5 4.3zM286.6 260.7c-.6 1.4-.5 1.5.5.6.7-.7 1-1.5.7-1.8-.3-.3-.9.2-1.2 1.2z"/></svg>